<svg xmlns="http://www.w3.org/2000/svg" viewBox="0 0 595.28 595.28">
  <g fill="#fff">
    <rect x="353.97" y="185.06" width="56.35" height="56.35" rx="9.39" ry="9.39" />
    <path d="M410.3 269.57l-23 5.1a87.39 87.39 0 0 1 3.87 25.76c0 49.95-41.8 90.46-93.37 90.46s-93.34-40.53-93.34-90.46a87.39 87.39 0 0 1 3.87-25.76l-23.33-5.1V401c0 6.59 2.83 9.4 9.4 9.4h206.52c6.59 0 9.4-2.81 9.4-9.4z" />
    <path d="M297.86 355.62c33.32 0 60.33-26.17 60.33-58.44s-27-58.45-60.33-58.45-60.31 26.15-60.31 58.45 27.01 58.44 60.31 58.44z" />
    <path d="M297.64 0C133.25 0 0 133.25 0 297.64s133.25 297.64 297.64 297.64S595.28 462 595.28 297.64 462 0 297.64 0zm150.21 410.41c0 21.21-16.35 37.56-37.55 37.56H185c-21.2 0-37.55-16.35-37.55-37.56V185.08c0-21.21 16.35-37.56 37.55-37.56h225.32c21.18 0 37.55 16.33 37.53 37.56z" />
  </g>
</svg>