<?xml version="1.0" encoding="UTF-8"?>
<svg width="456px" height="64px" viewBox="0 0 456 64" version="1.1" xmlns="http://www.w3.org/2000/svg" xmlns:xlink="http://www.w3.org/1999/xlink">
    <!-- Generator: Sketch 53.2 (72643) - https://sketchapp.com -->
    <title>peakmedia_logo_concept</title>
    <desc>Created with Sketch.</desc>
    <g id="Page-1" stroke="none" stroke-width="1" fill="none" fill-rule="evenodd">
        <g id="Homepage" transform="translate(-1061.000000, -148.000000)" fill-rule="nonzero">
            <g id="peakmedia_logo_concept" transform="translate(1061.000000, 148.000000)">
                <g id="Group" transform="translate(94.000000, 7.000000)" fill="#000000">
                    <path d="M8.93110285,28.0853614 L8.93110285,43.6512821 L0.265874565,43.6512821 L0.265874565,0.779487179 L17.4906576,0.779487179 C22.4573129,0.779487179 26.3672329,2.03733935 29.2204179,4.5530437 C32.0736028,7.06874804 33.5001952,10.37061 33.5001952,14.4586296 C33.5001952,18.5466491 32.0736028,21.8485111 29.2204179,24.3642154 C26.3672329,26.8799198 22.4573129,28.0853614 17.4906576,28.0853614 L8.93110285,28.0853614 Z M8.93110285,21.429227 L17.4906576,21.429227 C19.9211485,21.429227 21.7175982,20.8003009 22.9856804,19.4900382 C24.2537626,18.1797756 24.834967,16.5026393 24.834967,14.5110401 C24.834967,12.4670303 24.2009259,10.7374835 22.9856804,9.42722086 C21.770435,8.06454768 19.9211485,7.43562159 17.4906576,7.43562159 L8.93110285,7.43562159 L8.93110285,21.429227 Z" id="Shape"></path>
                    <polygon id="Path" points="69.0751616 24.0845955 51.3707642 24.0845955 51.3707642 35.9406877 72.0520072 35.9406877 72.0520072 42.3521368 42.805805 42.3521368 42.805805 0.779487179 71.9997819 0.779487179 71.9997819 7.1909362 51.3707642 7.1909362 51.3707642 17.6731465 69.0751616 17.6731465"></polygon>
                    <path d="M104.688201,34.4270328 L90.0340997,34.4270328 L87.1747628,43.6512821 L78.6988713,43.6512821 L93.0466154,0.779487179 L101.624626,0.779487179 L115.92131,43.6512821 L107.445419,43.6512821 L104.688201,34.4270328 Z M92.1275428,27.6660774 L102.645818,27.6660774 L97.4887995,10.8423046 L97.3356207,10.8423046 L92.1275428,27.6660774 Z" id="Shape"></path>
                    <polygon id="Path" points="138.284316 25.0005168 133.624618 25.0005168 133.624618 42.3521368 125.22692 42.3521368 125.22692 0.779487179 133.624618 0.779487179 133.624618 17.7749155 137.260206 17.7749155 148.371794 0.779487179 158.612888 0.779487179 144.582589 20.1156033 159.790614 42.3521368 149.549519 42.3521368"></polygon>
                    <polygon id="Path" points="178.77293 0.779487179 189.520651 32.383023 189.675667 32.383023 200.526731 0.779487179 211.636154 0.779487179 211.636154 43.6512821 203.161989 43.6512821 203.161989 30.8631183 203.988737 11.9429252 203.833722 11.8905147 192.517612 43.5988715 186.833721 43.5988715 175.569283 11.9953357 175.414268 12.0477462 176.241015 30.8631183 176.241015 43.6512821 167.766851 43.6512821 167.766851 0.779487179"></polygon>
                    <polygon id="Path" points="249.869866 24.0845955 232.165469 24.0845955 232.165469 35.9406877 252.846712 35.9406877 252.846712 42.3521368 223.600509 42.3521368 223.600509 0.779487179 252.794486 0.779487179 252.794486 7.1909362 232.165469 7.1909362 232.165469 17.6731465 249.869866 17.6731465"></polygon>
                    <path d="M263.481694,43.5988715 L263.481694,0.779487179 L277.826159,0.779487179 C282.93095,0.779487179 287.11688,2.45662341 290.434994,5.81089587 C293.753109,9.16516833 295.386642,13.4628299 295.386642,18.7038806 L295.386642,25.7792991 C295.386642,31.0203498 293.753109,35.3180114 290.434994,38.6722839 C287.11688,41.9741458 282.93095,43.6512821 277.826159,43.6512821 L263.481694,43.6512821 L263.481694,43.5988715 Z M271.853553,7.38321108 L271.853553,36.9951476 L277.366728,36.9951476 C280.378555,36.9951476 282.726759,35.9469375 284.41134,33.9029277 C286.095921,31.8065074 286.963736,29.1335716 286.963736,25.7792991 L286.963736,18.5990596 C286.963736,15.2971977 286.095921,12.5718513 284.41134,10.5278415 C282.726759,8.43142123 280.378555,7.43562159 277.366728,7.43562159 L271.853553,7.43562159 L271.853553,7.38321108 Z" id="Shape"></path>
                    <polygon id="Path" points="315.327235 42.3521368 307.350998 42.3521368 307.350998 0.779487179 315.327235 0.779487179"></polygon>
                    <path d="M350.622174,34.4270328 L335.968073,34.4270328 L333.108736,43.6512821 L324.632844,43.6512821 L338.980588,0.779487179 L347.558599,0.779487179 L361.855283,43.6512821 L353.379392,43.6512821 L350.622174,34.4270328 Z M338.061516,27.6660774 L348.579791,27.6660774 L343.422772,10.8423046 L343.269594,10.8423046 L338.061516,27.6660774 Z" id="Shape"></path>
                </g>
                <path d="M47.3333333,16 L65.3333333,48 L29.3333333,48 L47.3333333,16 L47.3333333,16 Z M48,0 L16,56 L80,56 L48,0 L48,0 Z" id="Shape" fill="#000000"></path>
                <polygon id="Path" fill="#0066CC" points="0 64 32 8 64 64"></polygon>
            </g>
        </g>
    </g>
</svg>